<svg xmlns="http://www.w3.org/2000/svg" width="64" height="64" viewBox="0 0 64 64"><defs><filter id="s" x="-10%" y="-10%" width="120%" height="120%"><feDropShadow dx="2" dy="2" stdDeviation="0" flood-color="#000" flood-opacity=".2"></feDropShadow></filter></defs><g filter="url(#s)"><rect x="22" y="4" width="4" height="16" fill="#2B2B2B" rx="1"></rect><rect x="38" y="4" width="4" height="16" fill="#2B2B2B" rx="1"></rect><rect x="12" y="26" width="4" height="9" fill="#2B2B2B" rx="1"></rect><rect x="48" y="26" width="4" height="9" fill="#2B2B2B" rx="1"></rect><rect x="12" y="46" width="4" height="9" fill="#2B2B2B" rx="1"></rect><rect x="48" y="46" width="4" height="9" fill="#2B2B2B" rx="1"></rect><rect x="18" y="18" width="28" height="5" fill="#2B2B2B" rx="1"></rect><rect x="16" y="23" width="32" height="34" fill="#3A6EA5" rx="4" stroke="#192F47" stroke-width="2"></rect><rect x="18" y="47" width="28" height="8" fill="#2F5D8A" rx="2"></rect><rect x="22" y="28" width="20" height="15" fill="none" stroke="#2B2B2B" stroke-width="2" rx="2"></rect><path d="M22 35.5H42" fill="none" stroke="#2B2B2B" stroke-width="1"></path><path d="M18 44V25H45" fill="none" stroke="#4982BF" stroke-width="1"></path></g></svg>