<svg xmlns="http://www.w3.org/2000/svg" style="display:none" xmlns:c2pa="http://c2pa.org/manifest"><metadata><c2pa:manifest>AAAWgmp1bWIAAAAeanVtZGMycGEAEQAQgAAAqgA4m3EDYzJwYQAAABZcanVtYgAAAEdqdW1kYzJtYQARABCAAACqADibcQN1cm46YzJwYToxZGUyY2MwZC0zMzkzLTQ4YWItODE3Zi1hM2VjODhmY2VlMzQAAAADl2p1bWIAAAApanVtZGMyYXMAEQAQgAAAqgA4m3EDYzJwYS5hc3NlcnRpb25zAAAAALxqdW1iAAAARGp1bWRjYm9yABEAEIAAAKoAOJtxE2MycGEuaW5ncmVkaWVudC52MwAAAAAYYzJzaHrnEs5uFmpzXmQKs62R2UoAAABwY2JvcqNpZGM6Zm9ybWF0bWltYWdlL3N2Zyt4bWxqaW5zdGFuY2VJRHgseG1wOmlpZDo3ZTdjM2NlMy0yZDlhLTRiZTktODcwNi0yN2QwNWUwNzFlMDJscmVsYXRpb25zaGlwaHBhcmVudE9mAAAB4mp1bWIAAABBanVtZGNib3IAEQAQgAAAqgA4m3ETYzJwYS5hY3Rpb25zLnYyAAAAABhjMnNoVQdpgWv4BVo45/aJuT6PjAAAAZljYm9yomdhY3Rpb25zgqJmYWN0aW9ua2MycGEub3BlbmVkanBhcmFtZXRlcnOha2luZ3JlZGllbnRzgaJjdXJseC1zZWxmI2p1bWJmPWMycGEuYXNzZXJ0aW9ucy9jMnBhLmluZ3JlZGllbnQudjNkaGFzaFggfvGC55eAml6R2lVd7DijLw2JALkVRJno82MJeoZJj2WkZmFjdGlvbngdY29tLmFudGhyb3BpYy5jbGF1ZGUucHJvdmlkZWRqcGFyYW1ldGVyc6F4H2NvbS5hbnRocm9waWMub3JpZ2luLWNvbmZpZGVuY2VndW5rbm93bmtkZXNjcmlwdGlvbnhmQ2xhdWRlIHByb3ZpZGVkIHRoaXMgZmlsZSBhdCB0aGUgcmVxdWVzdCBvZiBhIHVzZXIgYW5kIG1heSBoYXZlIGNyZWF0ZWQgb3IgbW9kaWZpZWQgdGhlIGZpbGUgY29udGVudHMubXNvZnR3YXJlQWdlbnShZG5hbWVmQ2xhdWRlcmFsbEFjdGlvbnNJbmNsdWRlZPUAAADIanVtYgAAAEBqdW1kY2JvcgARABCAAACqADibcRNjMnBhLmhhc2guZGF0YQAAAAAYYzJzaFQtACFAhj1qHgp/mxYP3fYAAACAY2JvcqVjYWxnZnNoYTI1NmNwYWRNAAAAAAAAAAAAAAAAAGRoYXNoWCCsQhGboJ/GIyLpzvMUwq8IjUuFBVJt/fc3/jNkN/k5v2RuYW1lbmp1bWJmIG1hbmlmZXN0amV4Y2x1c2lvbnOBomVzdGFydBh8Zmxlbmd0aBkeBAAAAj5qdW1iAAAAJ2p1bWRjMmNsABEAEIAAAKoAOJtxA2MycGEuY2xhaW0udjIAAAACD2Nib3KlY2FsZ2ZzaGEyNTZpc2lnbmF0dXJleE1zZWxmI2p1bWJmPS9jMnBhL3VybjpjMnBhOjFkZTJjYzBkLTMzOTMtNDhhYi04MTdmLWEzZWM4OGZjZWUzNC9jMnBhLnNpZ25hdHVyZWppbnN0YW5jZUlEeCx4bXA6aWlkOmUyNzk5YjBhLTJiNTktNDc4Ni1iZDc1LTg2NTJjNTQ5OTMyNXJjcmVhdGVkX2Fzc2VydGlvbnODomN1cmx4LXNlbGYjanVtYmY9YzJwYS5hc3NlcnRpb25zL2MycGEuaW5ncmVkaWVudC52M2RoYXNoWCB+8YLnl4CaXpHaVV3sOKMvDYkAuRVEmejzYwl6hkmPZaJjdXJseCpzZWxmI2p1bWJmPWMycGEuYXNzZXJ0aW9ucy9jMnBhLmFjdGlvbnMudjJkaGFzaFggNkps1RWt/Mmg+4R+zrDZ38+88O2mN6OSsewmJcIS9t2iY3VybHgpc2VsZiNqdW1iZj1jMnBhLmFzc2VydGlvbnMvYzJwYS5oYXNoLmRhdGFkaGFzaFggjNYNxmCzTFSZNWXAMbAbeibSG6SakgAN+FvKGbxwxER0Y2xhaW1fZ2VuZXJhdG9yX2luZm+jZG5hbWVvQW50aHJvcGljIEZpbGVzZ3ZlcnNpb25lMS4wLjBrc3BlY1ZlcnNpb25lMi40LjAAABA4anVtYgAAAChqdW1kYzJjcwARABCAAACqADibcQNjMnBhLnNpZ25hdHVyZQAAABAIY2JvctKEWQISogEmGCFZAgowggIGMIIBjaADAgECAhRA5aAK7sI50L64g/oGQgU9Z1UTADAKBggqhkjOPQQDAzBJMRcwFQYDVQQKEw5BbnRocm9waWMsIFBCQzEuMCwGA1UEAxMlQW50aHJvcGljIENvbnRlbnQgQ3JlZGVudGlhbHMgUm9vdCBDQTAeFw0yNjA4MDcxODQzNTZaFw0yODA4MDYxOTQzNTZaMEQxFzAVBgNVBAoTDkFudGhyb3BpYywgUEJDMSkwJwYDVQQDEyBBbnRocm9waWMgQ2xhdWRlIENvbnRlbnQgU2lnbmluZzBZMBMGByqGSM49AgEGCCqGSM49AwEHA0IABJh6CmvLUBgFFNU0vUKlOVtE6djd17L5SuwX0LemFisBM3dkd/3cyjxFA3Qo5S46fX0/ihY0VZ7mfb9KF703t5OjWDBWMA4GA1UdDwEB/wQEAwIHgDAVBgNVHSUEDjAMBgorBgEEAYPoXgIBMAwGA1UdEwEB/wQCMAAwHwYDVR0jBBgwFoAUzlHiBIFOZFsj+OPEz5o+nMHXXMIwCgYIKoZIzj0EAwMDZwAwZAIwMXMdFJ4BetLLVY7ORuE9noqbbAZOZn/aArXyTwFAZfKrPzxF2vPoJNf1+UCdg1XGAjBwX1zd9WGqYkqmL5SFqw1QySjr1zJfpJM9+1rdDwSPLMOPOjKuiXjoU/pUUeG9RwmhY3BhZFkNngAAAAAAAAAAAAAAAAAAAAAAAAAAAAAAAAAAAAAAAAAAAAAAAAAAAAAAAAAAAAAAAAAAAAAAAAAAAAAAAAAAAAAAAAAAAAAAAAAAAAAAAAAAAAAAAAAAAAAAAAAAAAAAAAAAAAAAAAAAAAAAAAAAAAAAAAAAAAAAAAAAAAAAAAAAAAAAAAAAAAAAAAAAAAAAAAAAAAAAAAAAAAAAAAAAAAAAAAAAAAAAAAAAAAAAAAAAAAAAAAAAAAAAAAAAAAAAAAAAAAAAAAAAAAAAAAAAAAAAAAAAAAAAAAAAAAAAAAAAAAAAAAAAAAAAAAAAAAAAAAAAAAAAAAAAAAAAAAAAAAAAAAAAAAAAAAAAAAAAAAAAAAAAAAAAAAAAAAAAAAAAAAAAAAAAAAAAAAAAAAAAAAAAAAAAAAAAAAAAAAAAAAAAAAAAAAAAAAAAAAAAAAAAAAAAAAAAAAAAAAAAAAAAAAAAAAAAAAAAAAAAAAAAAAAAAAAAAAAAAAAAAAAAAAAAAAAAAAAAAAAAAAAAAAAAAAAAAAAAAAAAAAAAAAAAAAAAAAAAAAAAAAAAAAAAAAAAAAAAAAAAAAAAAAAAAAAAAAAAAAAAAAAAAAAAAAAAAAAAAAAAAAAAAAAAAAAAAAAAAAAAAAAAAAAAAAAAAAAAAAAAAAAAAAAAAAAAAAAAAAAAAAAAAAAAAAAAAAAAAAAAAAAAAAAAAAAAAAAAAAAAAAAAAAAAAAAAAAAAAAAAAAAAAAAAAAAAAAAAAAAAAAAAAAAAAAAAAAAAAAAAAAAAAAAAAAAAAAAAAAAAAAAAAAAAAAAAAAAAAAAAAAAAAAAAAAAAAAAAAAAAAAAAAAAAAAAAAAAAAAAAAAAAAAAAAAAAAAAAAAAAAAAAAAAAAAAAAAAAAAAAAAAAAAAAAAAAAAAAAAAAAAAAAAAAAAAAAAAAAAAAAAAAAAAAAAAAAAAAAAAAAAAAAAAAAAAAAAAAAAAAAAAAAAAAAAAAAAAAAAAAAAAAAAAAAAAAAAAAAAAAAAAAAAAAAAAAAAAAAAAAAAAAAAAAAAAAAAAAAAAAAAAAAAAAAAAAAAAAAAAAAAAAAAAAAAAAAAAAAAAAAAAAAAAAAAAAAAAAAAAAAAAAAAAAAAAAAAAAAAAAAAAAAAAAAAAAAAAAAAAAAAAAAAAAAAAAAAAAAAAAAAAAAAAAAAAAAAAAAAAAAAAAAAAAAAAAAAAAAAAAAAAAAAAAAAAAAAAAAAAAAAAAAAAAAAAAAAAAAAAAAAAAAAAAAAAAAAAAAAAAAAAAAAAAAAAAAAAAAAAAAAAAAAAAAAAAAAAAAAAAAAAAAAAAAAAAAAAAAAAAAAAAAAAAAAAAAAAAAAAAAAAAAAAAAAAAAAAAAAAAAAAAAAAAAAAAAAAAAAAAAAAAAAAAAAAAAAAAAAAAAAAAAAAAAAAAAAAAAAAAAAAAAAAAAAAAAAAAAAAAAAAAAAAAAAAAAAAAAAAAAAAAAAAAAAAAAAAAAAAAAAAAAAAAAAAAAAAAAAAAAAAAAAAAAAAAAAAAAAAAAAAAAAAAAAAAAAAAAAAAAAAAAAAAAAAAAAAAAAAAAAAAAAAAAAAAAAAAAAAAAAAAAAAAAAAAAAAAAAAAAAAAAAAAAAAAAAAAAAAAAAAAAAAAAAAAAAAAAAAAAAAAAAAAAAAAAAAAAAAAAAAAAAAAAAAAAAAAAAAAAAAAAAAAAAAAAAAAAAAAAAAAAAAAAAAAAAAAAAAAAAAAAAAAAAAAAAAAAAAAAAAAAAAAAAAAAAAAAAAAAAAAAAAAAAAAAAAAAAAAAAAAAAAAAAAAAAAAAAAAAAAAAAAAAAAAAAAAAAAAAAAAAAAAAAAAAAAAAAAAAAAAAAAAAAAAAAAAAAAAAAAAAAAAAAAAAAAAAAAAAAAAAAAAAAAAAAAAAAAAAAAAAAAAAAAAAAAAAAAAAAAAAAAAAAAAAAAAAAAAAAAAAAAAAAAAAAAAAAAAAAAAAAAAAAAAAAAAAAAAAAAAAAAAAAAAAAAAAAAAAAAAAAAAAAAAAAAAAAAAAAAAAAAAAAAAAAAAAAAAAAAAAAAAAAAAAAAAAAAAAAAAAAAAAAAAAAAAAAAAAAAAAAAAAAAAAAAAAAAAAAAAAAAAAAAAAAAAAAAAAAAAAAAAAAAAAAAAAAAAAAAAAAAAAAAAAAAAAAAAAAAAAAAAAAAAAAAAAAAAAAAAAAAAAAAAAAAAAAAAAAAAAAAAAAAAAAAAAAAAAAAAAAAAAAAAAAAAAAAAAAAAAAAAAAAAAAAAAAAAAAAAAAAAAAAAAAAAAAAAAAAAAAAAAAAAAAAAAAAAAAAAAAAAAAAAAAAAAAAAAAAAAAAAAAAAAAAAAAAAAAAAAAAAAAAAAAAAAAAAAAAAAAAAAAAAAAAAAAAAAAAAAAAAAAAAAAAAAAAAAAAAAAAAAAAAAAAAAAAAAAAAAAAAAAAAAAAAAAAAAAAAAAAAAAAAAAAAAAAAAAAAAAAAAAAAAAAAAAAAAAAAAAAAAAAAAAAAAAAAAAAAAAAAAAAAAAAAAAAAAAAAAAAAAAAAAAAAAAAAAAAAAAAAAAAAAAAAAAAAAAAAAAAAAAAAAAAAAAAAAAAAAAAAAAAAAAAAAAAAAAAAAAAAAAAAAAAAAAAAAAAAAAAAAAAAAAAAAAAAAAAAAAAAAAAAAAAAAAAAAAAAAAAAAAAAAAAAAAAAAAAAAAAAAAAAAAAAAAAAAAAAAAAAAAAAAAAAAAAAAAAAAAAAAAAAAAAAAAAAAAAAAAAAAAAAAAAAAAAAAAAAAAAAAAAAAAAAAAAAAAAAAAAAAAAAAAAAAAAAAAAAAAAAAAAAAAAAAAAAAAAAAAAAAAAAAAAAAAAAAAAAAAAAAAAAAAAAAAAAAAAAAAAAAAAAAAAAAAAAAAAAAAAAAAAAAAAAAAAAAAAAAAAAAAAAAAAAAAAAAAAAAAAAAAAAAAAAAAAAAAAAAAAAAAAAAAAAAAAAAAAAAAAAAAAAAAAAAAAAAAAAAAAAAAAAAAAAAAAAAAAAAAAAAAAAAAAAAAAAAAAAAAAAAAAAAAAAAAAAAAAAAAAAAAAAAAAAAAAAAAAAAAAAAAAAAAAAAAAAAAAAAAAAAAAAAAAAAAAAAAAAAAAAAAAAAAAAAAAAAAAAAAAAAAAAAAAAAAAAAAAAAAAAAAAAAAAAAAAAAAAAAAAAAAAAAAAAAAAAAAAAAAAAAAAAAAAAAAAAAAAAAAAAAAAAAAAAAAAAAAAAAAAAAAAAAAAAAAAAAAAAAAAAAAAAAAAAAAAAAAAAAAAAAAAAAAAAAAAAAAAAAAAAAAAAAAAAAAAAAAAAAAAAAAAAAAAAAAAAAAAAAAAAAAAAAAAAAAAAAAAAAAAAAAAAAAAAAAAAAAAAAAAAAAAAAAAAAAAAAAAAAAAAAAAAAAAAAAAAAAAAAAAAAAAAAAAAAAAAAAAAAAAAAAAAAAAAAAAAAAAAAAAAAAAAAAAAAAAAAAAAAAAAAAAAAAAAAAAAAAAAAAAAAAAAAAAAAAAAAAAAAAAAAAAAAAAAAAAAAAAAAAAAAAAAAAAAAAAAAAAAAAAAAAAAAAAAAAAAAAAAAAAAAAAAAAAAAAAAAAAAAAAAAAAAAAAAAAAAAAAAAAAAAAAAAAAAAAAAAAAAAAAAAAAAAAAAAAAAAAAAAAAAAAAAAAAAAAAAAAAAAAAAAAAAAAAAAAAAAAAAAAAAAAAAAAAAAAAAAAAAAAAAAAAAAAAAAAAAAAAAAAAAAAAAAAAAAAAAAAAAAAAAAAAAAAAAAAAAAAAAAAAAAAAAAAAAAAAAAAAAAAAAAAAAAAAAAAAAAAAAAAAAAAAAAAAAAAAAAAAAAAAAAAAAAAAAAAAAAAAAAAAAAAAAAAAAAAAAAAAAAAAAAAAAAAAAAAAAAAAAAAAAAAAAAAAAAAAAAAAAAAAAAAAAAAAAAAAAAAAAAAAAAAAAAAAAAAAAAAAAAAAAAAAAAAAAAAAAAAAAAAAAAAAAAAAAAAAAAAAAAAAAAAAAAAAAAAAAAAAAAAAAAAAAAAAAAAAAAAAAAAAAAAAAAAAAAAAAAAAAAAAAAAAAAAAAAAAAAAAAAAAAAAAAAAAAAAAAAAAAAAAAAAAAAAAAAAAAAAAAAAAAAAAAAAAAAAAAAAAAAAAAAAAAAAAAAAAAAAAAAAAAAAAAAAAAAAAAAAAAAAAAAAAAAAAAAAAAAAAAAAAAAAAAAAAAAAAAAAAAAAAAAAAAAAAAAAAAAAAAAAAAAAAAAAAAAAAAAAAAAAAAAAAAAAAAAAAAAAAAAAAAAAAAAAAAAAAAAAAAAAAAAAAAAAAAAAAAAAAAAAAAAAAAAAAAAAAAAAAAAAAAAAAAAAAAAAAAAAAAAAAAAAAAAAAAAAAAAAAAAAAAAAAAAAAAAAAAAAAAAAAAAAAAAAAAAAAAAAAAAAAAAAAAAAAAAAAAAAAAAAAAAAAAAAAAAAAAAAAAAAAAAAAAAAAAAAAAAAAAAAAAAAAAAAAAAAAAAAAAAAAAAAAAAAAAAAAAAAAAAAAAAAAAAAAAAAAAAAAAAAAAAAAAAAAAAAAAAAAAAAAAAAAAAAAAAAAAAAAAAAAAAAAAAAAAAAAAAAAAAAAAAAAAAAAAAAAAAAAAAAAAAAAAAAAAAAAAAAAAAPZYQEYipsc5cVGebsa34QGiGR3xZaxTl3oNmbfJhbxObcUj/HcmJN0tCDSjIjVXKL5rXpTAPKjJ89kYM2/vnuNCvR4=</c2pa:manifest></metadata>
<symbol id="ic_container" viewBox="0 0 24 24"><g fill="none" stroke="currentColor" stroke-width="2" stroke-linecap="round" stroke-linejoin="round"><rect x="3" y="7" width="18" height="10" rx="1"></rect><path d="M9 10v4M15 10v4"></path></g></symbol>
<symbol id="ic_bulk" viewBox="0 0 24 24"><g fill="none" stroke="currentColor" stroke-width="2" stroke-linecap="round" stroke-linejoin="round"><circle cx="12" cy="8" r="4"></circle><circle cx="7.5" cy="16" r="4"></circle><circle cx="16.5" cy="16" r="4"></circle></g></symbol>
<symbol id="ic_liquid" viewBox="0 0 24 24"><g fill="none" stroke="currentColor" stroke-width="2" stroke-linecap="round" stroke-linejoin="round"><path d="M12 3C12 3 5.5 10.5 5.5 15a6.5 6.5 0 0 0 13 0C18.5 10.5 12 3 12 3z"></path></g></symbol>
<symbol id="ic_gas" viewBox="0 0 24 24"><g fill="none" stroke="currentColor" stroke-width="2" stroke-linecap="round" stroke-linejoin="round"><path d="M10 8V4h4v4"></path><rect x="7" y="8" width="10" height="13" rx="3"></rect></g></symbol>
<symbol id="ic_roro" viewBox="0 0 24 24"><g fill="none" stroke="currentColor" stroke-width="2" stroke-linecap="round" stroke-linejoin="round"><rect x="7" y="3" width="10" height="18" rx="3"></rect><path d="M9 8h6M9 17h6"></path></g></symbol>
<symbol id="ic_berth" viewBox="0 0 24 24"><g fill="none" stroke="currentColor" stroke-width="2" stroke-linecap="round" stroke-linejoin="round"><path d="M3 7c2 1.5 4 1.5 6 0s4-1.5 6 0 4 1.5 6 0"></path><path d="M3 14h18v6H3z"></path><path d="M8 14v-2M16 14v-2"></path></g></symbol>
<symbol id="ic_crane" viewBox="0 0 24 24"><g fill="none" stroke="currentColor" stroke-width="2" stroke-linecap="round" stroke-linejoin="round"><path d="M5 21V5M19 21V5M3 5h18"></path><path d="M10 5v5h4V5"></path><path d="M5 14h14"></path></g></symbol>
<symbol id="ic_yard" viewBox="0 0 24 24"><g fill="none" stroke="currentColor" stroke-width="2" stroke-linecap="round" stroke-linejoin="round"><rect x="3" y="13" width="8" height="6" rx="1"></rect><rect x="13" y="13" width="8" height="6" rx="1"></rect><rect x="8" y="5" width="8" height="6" rx="1"></rect></g></symbol>
<symbol id="ic_silo" viewBox="0 0 24 24"><g fill="none" stroke="currentColor" stroke-width="2" stroke-linecap="round" stroke-linejoin="round"><circle cx="12" cy="12" r="8"></circle><path d="M12 12V4a8 8 0 0 1 8 8z"></path></g></symbol>
<symbol id="ic_tank_farm" viewBox="0 0 24 24"><g fill="none" stroke="currentColor" stroke-width="2" stroke-linecap="round" stroke-linejoin="round"><circle cx="12" cy="12" r="8"></circle><path d="M12 7a5 5 0 1 1-5 5"></path></g></symbol>
<symbol id="ic_gasholder" viewBox="0 0 24 24"><g fill="none" stroke="currentColor" stroke-width="2" stroke-linecap="round" stroke-linejoin="round"><circle cx="7.5" cy="12" r="4.5"></circle><circle cx="16.5" cy="12" r="4.5"></circle><path d="M2 20h20"></path></g></symbol>
<symbol id="ic_lot" viewBox="0 0 24 24"><g fill="none" stroke="currentColor" stroke-width="2" stroke-linecap="round" stroke-linejoin="round"><path d="M3 20V4h18v16"></path><path d="M9 4v9M15 4v9"></path><rect x="10.5" y="15" width="3" height="5" rx="1"></rect></g></symbol>
<symbol id="ic_gate" viewBox="0 0 24 24"><g fill="none" stroke="currentColor" stroke-width="2" stroke-linecap="round" stroke-linejoin="round"><path d="M5 21V7M3 7h4"></path><path d="M7 11h14v3H7z"></path><path d="M12 11v3M17 11v3"></path></g></symbol>
<symbol id="ic_waiting" viewBox="0 0 24 24"><g fill="none" stroke="currentColor" stroke-width="2" stroke-linecap="round" stroke-linejoin="round"><path d="M6 3h12M6 21h12"></path><path d="M7 3v3l5 6-5 6v3M17 3v3l-5 6 5 6v3"></path></g></symbol>
<symbol id="ic_ramp" viewBox="0 0 24 24"><g fill="none" stroke="currentColor" stroke-width="2" stroke-linecap="round" stroke-linejoin="round"><path d="M3 20h18"></path><path d="M5 20V9l7-5 7 5v11"></path><path d="M9 20v-6h6v6"></path></g></symbol>
<symbol id="ic_depot" viewBox="0 0 24 24"><g fill="none" stroke="currentColor" stroke-width="2" stroke-linecap="round" stroke-linejoin="round"><path d="M3 21V9l9-6 9 6v12"></path><path d="M7 21v-8h10v8M7 17h10"></path></g></symbol>
<symbol id="ic_rail_station" viewBox="0 0 24 24"><g fill="none" stroke="currentColor" stroke-width="2" stroke-linecap="round" stroke-linejoin="round"><path d="M3 9l9-5 9 5"></path><path d="M5 9v4M19 9v4"></path><path d="M3 16h18M3 20h18M8 16v4M16 16v4"></path></g></symbol>
<symbol id="ic_road" viewBox="0 0 24 24"><g fill="none" stroke="currentColor" stroke-width="2" stroke-linecap="round" stroke-linejoin="round"><path d="M8 3L5 21M16 3l3 18"></path><path d="M12 4v3M12 10.5v3M12 17v3"></path></g></symbol>
<symbol id="ic_rail" viewBox="0 0 24 24"><g fill="none" stroke="currentColor" stroke-width="2" stroke-linecap="round" stroke-linejoin="round"><path d="M8 3v18M16 3v18"></path><path d="M5 6h14M5 12h14M5 18h14"></path></g></symbol>
<symbol id="ic_pipe" viewBox="0 0 24 24"><g fill="none" stroke="currentColor" stroke-width="2" stroke-linecap="round" stroke-linejoin="round"><path d="M2 10h12a4 4 0 0 1 4 4v7"></path><path d="M5 7v6M15 18h6"></path></g></symbol>
<symbol id="ic_parcel" viewBox="0 0 24 24"><g fill="none" stroke="currentColor" stroke-width="2" stroke-linecap="round" stroke-linejoin="round"><path d="M4 8V4h4M16 4h4v4M20 16v4h-4M8 20H4v-4"></path><path d="M11 4h2M20 11v2M13 20h-2M4 13v-2"></path></g></symbol>
<symbol id="ic_build" viewBox="0 0 24 24"><g fill="none" stroke="currentColor" stroke-width="2" stroke-linecap="round" stroke-linejoin="round"><path d="M14 4l6 6-3 3-6-6z"></path><path d="M12.5 8.5L3 18l3 3 9.5-9.5"></path></g></symbol>
<symbol id="ic_demolish" viewBox="0 0 24 24"><g fill="none" stroke="currentColor" stroke-width="2" stroke-linecap="round" stroke-linejoin="round"><path d="M4 7h16M9 7V4h6v3"></path><path d="M6 7l1 13h10l1-13"></path><path d="M10 11v6M14 11v6"></path></g></symbol>
<symbol id="ic_rotate" viewBox="0 0 24 24"><g fill="none" stroke="currentColor" stroke-width="2" stroke-linecap="round" stroke-linejoin="round"><path d="M20 12a8 8 0 1 1-2.3-5.7"></path><path d="M20 4v5h-5"></path></g></symbol>
<symbol id="ic_inspect" viewBox="0 0 24 24"><g fill="none" stroke="currentColor" stroke-width="2" stroke-linecap="round" stroke-linejoin="round"><circle cx="11" cy="11" r="6"></circle><path d="M20 20l-4.5-4.5"></path></g></symbol>
<symbol id="ic_close" viewBox="0 0 24 24"><g fill="none" stroke="currentColor" stroke-width="2" stroke-linecap="round" stroke-linejoin="round"><path d="M6 6l12 12M18 6L6 18"></path></g></symbol>
<symbol id="ic_pause" viewBox="0 0 24 24"><g fill="none" stroke="currentColor" stroke-width="2" stroke-linecap="round" stroke-linejoin="round"><path d="M9 5v14M15 5v14"></path></g></symbol>
<symbol id="ic_play" viewBox="0 0 24 24"><g fill="none" stroke="currentColor" stroke-width="2" stroke-linecap="round" stroke-linejoin="round"><path d="M8 5l11 7-11 7z"></path></g></symbol>
<symbol id="ic_speed2" viewBox="0 0 24 24"><g fill="none" stroke="currentColor" stroke-width="2" stroke-linecap="round" stroke-linejoin="round"><path d="M5 6l6 6-6 6M12 6l6 6-6 6"></path></g></symbol>
<symbol id="ic_speed4" viewBox="0 0 24 24"><g fill="none" stroke="currentColor" stroke-width="2" stroke-linecap="round" stroke-linejoin="round"><path d="M3 6l5 6-5 6M9 6l5 6-5 6M15 6l5 6-5 6"></path></g></symbol>
<symbol id="ic_speed8" viewBox="0 0 24 24"><g fill="none" stroke="currentColor" stroke-width="2" stroke-linecap="round" stroke-linejoin="round"><path d="M2 7l4 5-4 5M7 7l4 5-4 5M12 7l4 5-4 5M17 7l4 5-4 5"></path></g></symbol>
<symbol id="ic_save" viewBox="0 0 24 24"><g fill="none" stroke="currentColor" stroke-width="2" stroke-linecap="round" stroke-linejoin="round"><path d="M5 3h11l3 3v15H5z"></path><path d="M8 3v5h7V3M8 21v-7h8v7"></path></g></symbol>
<symbol id="ic_load" viewBox="0 0 24 24"><g fill="none" stroke="currentColor" stroke-width="2" stroke-linecap="round" stroke-linejoin="round"><path d="M3 6h6l2 2h10v11H3z"></path><path d="M12 11v5M9.5 13.5L12 16l2.5-2.5"></path></g></symbol>
<symbol id="ic_settings" viewBox="0 0 24 24"><g fill="none" stroke="currentColor" stroke-width="2" stroke-linecap="round" stroke-linejoin="round"><path d="M4 7h9M19 7h1M4 17h2M12 17h8"></path><circle cx="16" cy="7" r="2.5"></circle><circle cx="9" cy="17" r="2.5"></circle></g></symbol>
<symbol id="ic_cash" viewBox="0 0 24 24"><g fill="none" stroke="currentColor" stroke-width="2" stroke-linecap="round" stroke-linejoin="round"><rect x="2" y="6" width="20" height="12" rx="2"></rect><circle cx="12" cy="12" r="3"></circle><path d="M6 9.5v0M18 14.5v0"></path></g></symbol>
<symbol id="ic_xp" viewBox="0 0 24 24"><g fill="none" stroke="currentColor" stroke-width="2" stroke-linecap="round" stroke-linejoin="round"><path d="M12 3l2.7 5.6 6.1.9-4.4 4.3 1 6.1L12 17l-5.4 2.9 1-6.1-4.4-4.3 6.1-.9z"></path></g></symbol>
<symbol id="ic_clock" viewBox="0 0 24 24"><g fill="none" stroke="currentColor" stroke-width="2" stroke-linecap="round" stroke-linejoin="round"><circle cx="12" cy="12" r="9"></circle><path d="M12 7v5l3 2"></path></g></symbol>
<symbol id="ic_calendar" viewBox="0 0 24 24"><g fill="none" stroke="currentColor" stroke-width="2" stroke-linecap="round" stroke-linejoin="round"><rect x="3" y="5" width="18" height="16" rx="2"></rect><path d="M3 10h18M8 3v4M16 3v4"></path></g></symbol>
<symbol id="ic_contract" viewBox="0 0 24 24"><g fill="none" stroke="currentColor" stroke-width="2" stroke-linecap="round" stroke-linejoin="round"><path d="M6 3h9l4 4v14H6z"></path><path d="M14 3v5h5M9 12h6M9 16h6"></path></g></symbol>
<symbol id="ic_ship" viewBox="0 0 24 24"><g fill="none" stroke="currentColor" stroke-width="2" stroke-linecap="round" stroke-linejoin="round"><path d="M3 14h18l-3 5H6z"></path><path d="M6 14V9h9v5M9 9V6h3"></path></g></symbol>
<symbol id="ic_truck" viewBox="0 0 24 24"><g fill="none" stroke="currentColor" stroke-width="2" stroke-linecap="round" stroke-linejoin="round"><path d="M2 6h11v10H2zM13 9h4l4 4v3h-8z"></path><circle cx="6" cy="18" r="2"></circle><circle cx="17" cy="18" r="2"></circle></g></symbol>
<symbol id="ic_vehicle" viewBox="0 0 24 24"><g fill="none" stroke="currentColor" stroke-width="2" stroke-linecap="round" stroke-linejoin="round"><path d="M3 13l2-6h14l2 6v4H3z"></path><circle cx="7" cy="17" r="2"></circle><circle cx="17" cy="17" r="2"></circle></g></symbol>
<symbol id="ic_heatmap" viewBox="0 0 24 24"><g fill="none" stroke="currentColor" stroke-width="2" stroke-linecap="round" stroke-linejoin="round"><path d="M12 3c3 4 6 6 6 10a6 6 0 0 1-12 0c0-3 2-4 3-6 1 2 2 3 3 3 0-2 0-4 0-7z"></path></g></symbol>
<symbol id="ic_utilization" viewBox="0 0 24 24"><g fill="none" stroke="currentColor" stroke-width="2" stroke-linecap="round" stroke-linejoin="round"><path d="M4 17a8 8 0 1 1 16 0"></path><path d="M12 17l4-5"></path></g></symbol>
<symbol id="ic_warning" viewBox="0 0 24 24"><g fill="none" stroke="currentColor" stroke-width="2" stroke-linecap="round" stroke-linejoin="round"><path d="M12 3l10 18H2z"></path><path d="M12 10v5M12 18v0"></path></g></symbol>
<symbol id="ic_lock" viewBox="0 0 24 24"><g fill="none" stroke="currentColor" stroke-width="2" stroke-linecap="round" stroke-linejoin="round"><rect x="5" y="11" width="14" height="10" rx="2"></rect><path d="M8 11V7a4 4 0 0 1 8 0v4"></path></g></symbol>
<symbol id="ic_check" viewBox="0 0 24 24"><g fill="none" stroke="currentColor" stroke-width="2" stroke-linecap="round" stroke-linejoin="round"><path d="M5 12l5 5 9-10"></path></g></symbol>
<symbol id="ic_reputation" viewBox="0 0 24 24"><g fill="none" stroke="currentColor" stroke-width="2" stroke-linecap="round" stroke-linejoin="round"><path d="M12 3l8 3v6c0 5-3.5 8-8 9-4.5-1-8-4-8-9V6z"></path><path d="M9 12l2 2 4-4"></path></g></symbol>
<symbol id="ic_idle" viewBox="0 0 24 24"><g fill="none" stroke="currentColor" stroke-width="2" stroke-linecap="round" stroke-linejoin="round"><circle cx="12" cy="12" r="9"></circle><path d="M8 12h8"></path></g></symbol>
<symbol id="ic_busy" viewBox="0 0 24 24"><g fill="none" stroke="currentColor" stroke-width="2" stroke-linecap="round" stroke-linejoin="round"><circle cx="12" cy="12" r="9"></circle><path d="M10 8l6 4-6 4z"></path></g></symbol>
<symbol id="ic_blocked" viewBox="0 0 24 24"><g fill="none" stroke="currentColor" stroke-width="2" stroke-linecap="round" stroke-linejoin="round"><circle cx="12" cy="12" r="9"></circle><path d="M5.6 5.6l12.8 12.8"></path></g></symbol>
<symbol id="ic_info" viewBox="0 0 24 24"><g fill="none" stroke="currentColor" stroke-width="2" stroke-linecap="round" stroke-linejoin="round"><circle cx="12" cy="12" r="9"></circle><path d="M12 11v6M12 7.5v0"></path></g></symbol>
<symbol id="ic_container_20" viewBox="0 0 24 24"><g fill="none" stroke="currentColor" stroke-width="2" stroke-linecap="round" stroke-linejoin="round"><rect x="5" y="6" width="14" height="12" rx="1"></rect><path d="M9 9v6M12 9v6M15 9v6"></path></g></symbol>
<symbol id="ic_container_40" viewBox="0 0 24 24"><g fill="none" stroke="currentColor" stroke-width="2" stroke-linecap="round" stroke-linejoin="round"><rect x="2" y="7" width="20" height="10" rx="1"></rect><path d="M6 10v4M10 10v4M14 10v4M18 10v4"></path></g></symbol>
<symbol id="ic_reefer" viewBox="0 0 24 24"><g fill="none" stroke="currentColor" stroke-width="2" stroke-linecap="round" stroke-linejoin="round"><path d="M12 3v18M4.2 7.5l15.6 9M4.2 16.5l15.6-9"></path><path d="M9.5 4.5L12 7l2.5-2.5M9.5 19.5L12 17l2.5 2.5"></path></g></symbol>
<symbol id="ic_open_top" viewBox="0 0 24 24"><g fill="none" stroke="currentColor" stroke-width="2" stroke-linecap="round" stroke-linejoin="round"><path d="M3 8h18v10H3z"></path><path d="M3 8c3 3 6 3 9 0s6-3 9 0"></path><path d="M8 11v7M16 11v7"></path></g></symbol>
<symbol id="ic_flat_rack" viewBox="0 0 24 24"><g fill="none" stroke="currentColor" stroke-width="2" stroke-linecap="round" stroke-linejoin="round"><path d="M2 18h20"></path><path d="M4 18V6M20 18V6"></path><path d="M8 14h8"></path></g></symbol>
<symbol id="ic_tank" viewBox="0 0 24 24"><g fill="none" stroke="currentColor" stroke-width="2" stroke-linecap="round" stroke-linejoin="round"><path d="M3 6v12M21 6v12M3 6h2M3 18h2M19 6h2M19 18h2"></path><rect x="5" y="8" width="14" height="8" rx="4"></rect><path d="M12 8v-2"></path></g></symbol>
<symbol id="ic_plug" viewBox="0 0 24 24"><g fill="none" stroke="currentColor" stroke-width="2" stroke-linecap="round" stroke-linejoin="round"><path d="M9 3v5M15 3v5"></path><path d="M6 8h12v3a6 6 0 0 1-12 0z"></path><path d="M12 17v4"></path></g></symbol>
<symbol id="ic_rehandle" viewBox="0 0 24 24"><g fill="none" stroke="currentColor" stroke-width="2" stroke-linecap="round" stroke-linejoin="round"><rect x="3" y="14" width="9" height="6" rx="1"></rect><rect x="12" y="4" width="9" height="6" rx="1"></rect><path d="M7 11V7h3M8 5.5L10 7 8 8.5"></path></g></symbol>
<symbol id="ic_stack_height" viewBox="0 0 24 24"><g fill="none" stroke="currentColor" stroke-width="2" stroke-linecap="round" stroke-linejoin="round"><rect x="5" y="15" width="10" height="5" rx="1"></rect><rect x="5" y="9" width="10" height="5" rx="1"></rect><rect x="5" y="3" width="10" height="5" rx="1"></rect><path d="M19 4v16M17 6l2-2 2 2M17 18l2 2 2-2"></path></g></symbol>
<symbol id="ic_tp" viewBox="0 0 24 24"><g fill="none" stroke="currentColor" stroke-width="2" stroke-linecap="round" stroke-linejoin="round"><path d="M4 9V4h5M15 4h5v5M20 15v5h-5M9 20H4v-5"></path><path d="M12 9l3 5H9z"></path></g></symbol>
<symbol id="ic_appointment" viewBox="0 0 24 24"><g fill="none" stroke="currentColor" stroke-width="2" stroke-linecap="round" stroke-linejoin="round"><rect x="3" y="5" width="13" height="13" rx="2"></rect><path d="M3 9h13M7 3v4M12 3v4"></path><circle cx="17" cy="17" r="4"></circle><path d="M17 15.5V17l1 1"></path></g></symbol>
<symbol id="ic_tractor" viewBox="0 0 24 24"><g fill="none" stroke="currentColor" stroke-width="2" stroke-linecap="round" stroke-linejoin="round"><path d="M5 4h7v8H5z"></path><path d="M12 7h4l2 3v2h-6"></path><circle cx="12" cy="17" r="3"></circle><circle cx="6" cy="18" r="2"></circle><circle cx="18" cy="18" r="2"></circle></g></symbol>
<symbol id="ic_straddle" viewBox="0 0 24 24"><g fill="none" stroke="currentColor" stroke-width="2" stroke-linecap="round" stroke-linejoin="round"><path d="M5 21V5h14v16"></path><path d="M3 21h4M17 21h4"></path><path d="M5 9h14"></path><rect x="9" y="12" width="6" height="5" rx="1"></rect></g></symbol>
<symbol id="ic_rtg" viewBox="0 0 24 24"><g fill="none" stroke="currentColor" stroke-width="2" stroke-linecap="round" stroke-linejoin="round"><path d="M4 21V4M20 21V4M2 4h20"></path><path d="M10 4v4h4V4"></path><path d="M12 8v4"></path><rect x="9" y="12" width="6" height="4" rx="1"></rect><path d="M2 21h4M18 21h4"></path></g></symbol>
<symbol id="ic_rmg" viewBox="0 0 24 24"><g fill="none" stroke="currentColor" stroke-width="2" stroke-linecap="round" stroke-linejoin="round"><path d="M5 20V4M17 20V4M2 4h21"></path><path d="M11 4v4h4V4"></path><path d="M13 8v4"></path><path d="M3 20h4M15 20h4M3 22h4M15 22h4"></path></g></symbol>
<symbol id="ic_reach_stacker" viewBox="0 0 24 24"><g fill="none" stroke="currentColor" stroke-width="2" stroke-linecap="round" stroke-linejoin="round"><path d="M3 16h10v-5H7l-2 3H3z"></path><path d="M11 11L20 4"></path><path d="M17 3h5"></path><circle cx="6" cy="18" r="2"></circle><circle cx="12" cy="18" r="2"></circle></g></symbol>
<symbol id="ic_ech" viewBox="0 0 24 24"><g fill="none" stroke="currentColor" stroke-width="2" stroke-linecap="round" stroke-linejoin="round"><path d="M3 17h9v-6H6l-3 3z"></path><path d="M14 4v14M14 6h6M14 12h6"></path><path d="M20 4v10"></path><circle cx="5" cy="19" r="2"></circle><circle cx="11" cy="19" r="2"></circle></g></symbol>
<symbol id="ic_agv" viewBox="0 0 24 24"><g fill="none" stroke="currentColor" stroke-width="2" stroke-linecap="round" stroke-linejoin="round"><rect x="3" y="9" width="18" height="7" rx="2"></rect><path d="M6 12h2M16 12h2"></path><path d="M7 19v0M17 19v0"></path><path d="M5 6l2 2M19 6l-2 2"></path></g></symbol>
<symbol id="ic_train" viewBox="0 0 24 24"><g fill="none" stroke="currentColor" stroke-width="2" stroke-linecap="round" stroke-linejoin="round"><rect x="5" y="3" width="14" height="14" rx="3"></rect><path d="M5 10h14M9 21l1.5-4M15 21l-1.5-4"></path><path d="M9 13.5v0M15 13.5v0"></path></g></symbol>
<symbol id="ic_gate_in" viewBox="0 0 24 24"><g fill="none" stroke="currentColor" stroke-width="2" stroke-linecap="round" stroke-linejoin="round"><path d="M4 21V4h16v17"></path><path d="M8 4v4M12 4v4M16 4v4"></path><path d="M12 20v-9M9 14l3-3 3 3"></path></g></symbol>
<symbol id="ic_gate_out" viewBox="0 0 24 24"><g fill="none" stroke="currentColor" stroke-width="2" stroke-linecap="round" stroke-linejoin="round"><path d="M4 21V4h16v17"></path><path d="M8 4v4M12 4v4M16 4v4"></path><path d="M12 11v9M9 17l3 3 3-3"></path></g></symbol>
<symbol id="ic_weighbridge" viewBox="0 0 24 24"><g fill="none" stroke="currentColor" stroke-width="2" stroke-linecap="round" stroke-linejoin="round"><path d="M3 18h18"></path><path d="M5 18v-3h14v3"></path><path d="M8 11h8"></path><path d="M12 11V5M9 8h6"></path></g></symbol>
<symbol id="ic_ocr" viewBox="0 0 24 24"><g fill="none" stroke="currentColor" stroke-width="2" stroke-linecap="round" stroke-linejoin="round"><path d="M4 8V5h3M17 5h3v3M20 16v3h-3M7 19H4v-3"></path><rect x="7" y="9" width="10" height="6" rx="1"></rect><path d="M9.5 12h1M13.5 12h1"></path></g></symbol>
<symbol id="ic_seal" viewBox="0 0 24 24"><g fill="none" stroke="currentColor" stroke-width="2" stroke-linecap="round" stroke-linejoin="round"><circle cx="12" cy="15" r="5"></circle><path d="M12 10V3h4"></path><path d="M10.5 15h3"></path></g></symbol>
<symbol id="ic_twistlock" viewBox="0 0 24 24"><g fill="none" stroke="currentColor" stroke-width="2" stroke-linecap="round" stroke-linejoin="round"><rect x="5" y="5" width="14" height="14" rx="2"></rect><path d="M9 9l6 6M15 9l-6 6"></path><circle cx="12" cy="12" r="2"></circle></g></symbol>
<symbol id="ic_safe_zone" viewBox="0 0 24 24"><g fill="none" stroke="currentColor" stroke-width="2" stroke-linecap="round" stroke-linejoin="round"><path d="M12 3l8 3v6c0 5-3.5 8-8 9-4.5-1-8-4-8-9V6z"></path><path d="M8.5 12h7M12 8.5v7"></path></g></symbol>
<symbol id="ic_holding" viewBox="0 0 24 24"><g fill="none" stroke="currentColor" stroke-width="2" stroke-linecap="round" stroke-linejoin="round"><path d="M2 7h11v9H2zM13 10h4l3 3v3h-7"></path><circle cx="6" cy="18" r="2"></circle><circle cx="16" cy="18" r="2"></circle><path d="M6 14V9h2.5a1.5 1.5 0 0 1 0 3H6"></path></g></symbol>
<symbol id="ic_traffic_jam" viewBox="0 0 24 24"><g fill="none" stroke="currentColor" stroke-width="2" stroke-linecap="round" stroke-linejoin="round"><rect x="2" y="9" width="8" height="6" rx="2"></rect><rect x="14" y="9" width="8" height="6" rx="2"></rect><path d="M10 12h4"></path><path d="M12 3v3M12 18v3"></path></g></symbol>
<symbol id="ic_one_way" viewBox="0 0 24 24"><g fill="none" stroke="currentColor" stroke-width="2" stroke-linecap="round" stroke-linejoin="round"><rect x="2" y="8" width="20" height="8" rx="2"></rect><path d="M6 12h10M13 9.5l3 2.5-3 2.5"></path></g></symbol>
<symbol id="ic_terminal_only" viewBox="0 0 24 24"><g fill="none" stroke="currentColor" stroke-width="2" stroke-linecap="round" stroke-linejoin="round"><path d="M5 21L8 3M19 21L16 3"></path><path d="M12 4v2M12 9v2"></path><rect x="9" y="15" width="6" height="5" rx="1"></rect><path d="M10 15v-2a2 2 0 0 1 4 0v2"></path></g></symbol>
</svg>